# xmcd
#
# Track frame offsets:
#	150
#	18684
#	29586
#	45420
#	59424
#	71080
#	83299
#	99523
#	117036
#	135603
#	147098
#	160694
#	170091
#	182330
#	194442
#	207256
#	222180
#	235074
#	245497
#	262715
#	280576
#	295124
#	310930
#
# Disc length: 4312 seconds
#
# Revision: 1
# Processed by: cddbd v1.4PL0 Copyright (c) Steve Scherf et al.
# Submitted via: audiograbber 1.81.01
#
DISCID=3f10d617
DTITLE=Mekano - Ta Dominao
DYEAR=2002
DGENRE=Samba
TTITLE0=danca do vampiro
TTITLE1=planeta domindo
TTITLE2=baile todo
TTITLE3=sensacao rmx
TTITLE4=penca o bonde e vem
TTITLE5=mumia
TTITLE6=tudo lindo
TTITLE7=swing dobum
TTITLE8=rabadada
TTITLE9=aviaozynho
TTITLE10=black out
TTITLE11=travesso do funk
TTITLE12=obra cega
TTITLE13=isqueiro e celular
TTITLE14=danca du 1010
TTITLE15=de dogs bolado
TTITLE16=vamos danca
TTITLE17=para frente com os tchutchucos
TTITLE18=mexa a lomba lomba
TTITLE19=direita direita
TTITLE20=kebra deira
TTITLE21=popozuda du planeta
TTITLE22=toma toma
EXTD=
EXTT0=
EXTT1=
EXTT2=
EXTT3=
EXTT4=
EXTT5=
EXTT6=
EXTT7=
EXTT8=
EXTT9=
EXTT10=
EXTT11=
EXTT12=
EXTT13=
EXTT14=
EXTT15=
EXTT16=
EXTT17=
EXTT18=
EXTT19=
EXTT20=
EXTT21=
EXTT22=
PLAYORDER=
